<svg width="9" height="15" viewBox="0 0 9 15" fill="none" xmlns="http://www.w3.org/2000/svg">
<path d="M4.35938 14.1328V12.8125C2.50781 12.6484 1.03906 11.5391 0.914062 9.79688L0.90625 9.6875H2.26562L2.28125 9.78125C2.4375 10.6797 3.01562 11.4375 4.35938 11.5859V7.82812L4.17969 7.78125C2.23438 7.3125 1.1875 6.44531 1.1875 4.89844V4.89062C1.1875 3.21875 2.51562 2.08594 4.35938 1.91406V0.59375H5.29688V1.90625C7.09375 2.07031 8.44531 3.21875 8.55469 4.85938L8.5625 4.97656H7.20312L7.19531 4.90625C7.08594 3.92188 6.35156 3.27344 5.29688 3.14062V6.72656L5.53906 6.78125C7.54688 7.26562 8.67188 8.09375 8.67188 9.74219V9.75C8.67188 11.625 7.13281 12.6797 5.29688 12.8203V14.1328H4.35938ZM2.54688 4.82812C2.54688 5.59375 3.02344 6.17188 4.35938 6.5V3.14062C3.17188 3.30469 2.54688 4.0625 2.54688 4.82031V4.82812ZM5.34375 8.0625L5.29688 8.05469V11.6016C6.75 11.4844 7.3125 10.7422 7.3125 9.83594V9.82812C7.3125 8.97656 6.88281 8.4375 5.34375 8.0625Z" fill="white"/>
</svg>
