<svg width="24" height="24" viewBox="0 0 24 24" fill="none" xmlns="http://www.w3.org/2000/svg">
<path d="M11.709 21.9102C6.26953 21.9102 1.74805 17.3887 1.74805 11.9492C1.74805 6.5 6.25977 1.98828 11.6992 1.98828C17.1484 1.98828 21.6699 6.5 21.6699 11.9492C21.6699 17.3887 17.1582 21.9102 11.709 21.9102ZM11.709 20.25C16.3184 20.25 20.0098 16.5586 20.0098 11.9492C20.0098 7.33984 16.3086 3.64844 11.6992 3.64844C7.08984 3.64844 3.41797 7.33984 3.41797 11.9492C3.41797 16.5586 7.09961 20.25 11.709 20.25ZM7.17773 11.9492C7.17773 11.4609 7.50977 11.1191 8.00781 11.1191H10.8789V8.24805C10.8789 7.75 11.2109 7.4082 11.6895 7.4082C12.1777 7.4082 12.5195 7.75 12.5195 8.24805V11.1191H15.4004C15.8887 11.1191 16.2305 11.4609 16.2305 11.9492C16.2305 12.4277 15.8887 12.75 15.4004 12.75H12.5195V15.6309C12.5195 16.1289 12.1777 16.4609 11.6895 16.4609C11.2109 16.4609 10.8789 16.1191 10.8789 15.6309V12.75H8.00781C7.50977 12.75 7.17773 12.4277 7.17773 11.9492Z" fill="white"/>
</svg>
