<svg width="24" height="25" viewBox="0 0 24 25" fill="none" xmlns="http://www.w3.org/2000/svg">
<path d="M11.709 22.4102C6.26953 22.4102 1.74805 17.8887 1.74805 12.4492C1.74805 7 6.25977 2.48828 11.6992 2.48828C17.1484 2.48828 21.6699 7 21.6699 12.4492C21.6699 17.8887 17.1582 22.4102 11.709 22.4102ZM11.709 20.75C16.3184 20.75 20.0098 17.0586 20.0098 12.4492C20.0098 7.83984 16.3086 4.14844 11.6992 4.14844C7.08984 4.14844 3.41797 7.83984 3.41797 12.4492C3.41797 17.0586 7.09961 20.75 11.709 20.75ZM7.17773 12.4492C7.17773 11.9609 7.50977 11.6191 8.00781 11.6191H10.8789V8.74805C10.8789 8.25 11.2109 7.9082 11.6895 7.9082C12.1777 7.9082 12.5195 8.25 12.5195 8.74805V11.6191H15.4004C15.8887 11.6191 16.2305 11.9609 16.2305 12.4492C16.2305 12.9277 15.8887 13.25 15.4004 13.25H12.5195V16.1309C12.5195 16.6289 12.1777 16.9609 11.6895 16.9609C11.2109 16.9609 10.8789 16.6191 10.8789 16.1309V13.25H8.00781C7.50977 13.25 7.17773 12.9277 7.17773 12.4492Z" fill="white"/>
</svg>
