<svg width="40" height="40" viewBox="0 0 40 40" fill="none" xmlns="http://www.w3.org/2000/svg">
<path d="M23.3417 3.33838C26.3917 3.33692 29.35 4.38116 31.7232 6.29692C34.0964 8.21269 35.741 10.8842 36.3829 13.8658C37.0247 16.8475 36.6249 19.9591 35.2502 22.6816C33.8754 25.4042 31.6088 27.5731 28.8284 28.8267C27.9397 30.7916 26.5876 32.5115 24.8882 33.8391C23.1887 35.1667 21.1927 36.0622 19.0711 36.4489C16.9496 36.8357 14.7659 36.702 12.7073 36.0595C10.6488 35.417 8.7768 34.2847 7.25192 32.7599C5.72705 31.235 4.59479 29.363 3.95226 27.3044C3.30973 25.2459 3.1761 23.0622 3.56284 20.9407C3.94957 18.8191 4.84512 16.823 6.17269 15.1236C7.50026 13.4242 9.22022 12.0721 11.1851 11.1834C12.2415 8.84448 13.9504 6.86016 16.1068 5.46859C18.2632 4.07703 20.7753 3.33736 23.3417 3.33838ZM16.6751 13.3384C14.0229 13.3384 11.4794 14.3919 9.604 16.2673C7.72864 18.1427 6.67507 20.6862 6.67507 23.3384C6.67507 25.9905 7.72864 28.5341 9.604 30.4094C11.4794 32.2848 14.0229 33.3384 16.6751 33.3384C19.3272 33.3384 21.8708 32.2848 23.7461 30.4094C25.6215 28.5341 26.6751 25.9905 26.6751 23.3384C26.6751 20.6862 25.6215 18.1427 23.7461 16.2673C21.8708 14.3919 19.3272 13.3384 16.6751 13.3384ZM17.8417 15.005C18.1179 15.005 18.3417 15.2289 18.3417 15.505V16.6717H21.1751C21.4512 16.6717 21.6751 16.8956 21.6751 17.1717V19.505C21.6751 19.7812 21.4512 20.005 21.1751 20.005H15.0084C14.8002 20.0047 14.5993 20.0823 14.4454 20.2226C14.2915 20.3629 14.1958 20.5557 14.1769 20.7631C14.1581 20.9705 14.2176 21.1774 14.3438 21.3431C14.4699 21.5088 14.6535 21.6213 14.8584 21.6584L15.0084 21.6717H18.3417C19.4468 21.6717 20.5066 22.1107 21.288 22.8921C22.0694 23.6735 22.5084 24.7333 22.5084 25.8384C22.5084 26.9434 22.0694 28.0033 21.288 28.7847C20.5066 29.5661 19.4468 30.005 18.3417 30.005V31.1717C18.3417 31.4479 18.1179 31.6717 17.8417 31.6717H15.5084C15.2323 31.6717 15.0084 31.4479 15.0084 31.1717V30.005H12.1751C11.8989 30.005 11.6751 29.7812 11.6751 29.505V27.1717C11.6751 26.8956 11.8989 26.6717 12.1751 26.6717H18.3417C18.55 26.6721 18.7508 26.5945 18.9047 26.4542C19.0586 26.3139 19.1544 26.1211 19.1732 25.9137C19.192 25.7063 19.1325 25.4994 19.0064 25.3337C18.8802 25.168 18.6966 25.0555 18.4917 25.0184L18.3417 25.005H15.0084C13.9033 25.005 12.8435 24.5661 12.0621 23.7847C11.2807 23.0033 10.8417 21.9434 10.8417 20.8384C10.8417 19.7333 11.2807 18.6735 12.0621 17.8921C12.8435 17.1107 13.9033 16.6717 15.0084 16.6717V15.505C15.0084 15.2289 15.2323 15.005 15.5084 15.005H17.8417ZM23.3417 6.67171C21.9295 6.67141 20.5333 6.97024 19.2449 7.54851C17.9565 8.12678 16.8052 8.97138 15.8667 10.0267C17.7505 9.91236 19.6371 10.1992 21.4017 10.8683C23.1664 11.5374 24.7689 12.5735 26.1033 13.908C27.4377 15.2426 28.4736 16.8452 29.1425 18.6099C29.8114 20.3747 30.098 22.2613 29.9834 24.145C31.4988 22.7978 32.5687 21.0216 33.0514 19.0522C33.5341 17.0828 33.4067 15.0132 32.6861 13.1179C31.9655 11.2226 30.6858 9.59111 29.0166 8.43985C27.3475 7.28859 25.3678 6.67195 23.3401 6.67171" fill="#FBCF58"/>
</svg>
