<svg width="24" height="24" viewBox="0 0 24 24" fill="none" xmlns="http://www.w3.org/2000/svg">
<path d="M14.0051 2.00293C15.8351 2.00206 17.61 2.6286 19.0339 3.77806C20.4579 4.92751 21.4447 6.5304 21.8298 8.3194C22.2149 10.1084 21.975 11.9753 21.1501 13.6089C20.3253 15.2424 18.9653 16.5438 17.2971 17.2959C16.7638 18.4748 15.9526 19.5068 14.933 20.3034C13.9133 21.0999 12.7156 21.6372 11.4427 21.8693C10.1698 22.1013 8.85959 22.0211 7.62446 21.6356C6.38932 21.2501 5.26613 20.5707 4.3512 19.6558C3.43628 18.7409 2.75692 17.6177 2.37141 16.3826C1.98589 15.1474 1.90571 13.8372 2.13775 12.5643C2.36979 11.2914 2.90712 10.0937 3.70366 9.07407C4.5002 8.05441 5.53218 7.24317 6.71109 6.70993C7.34493 5.30659 8.3703 4.116 9.66413 3.28106C10.958 2.44612 12.4653 2.00232 14.0051 2.00293ZM10.0051 8.00293C8.41379 8.00293 6.88767 8.63507 5.76245 9.76029C4.63723 10.8855 4.00509 12.4116 4.00509 14.0029C4.00509 15.5942 4.63723 17.1204 5.76245 18.2456C6.88767 19.3708 8.41379 20.0029 10.0051 20.0029C11.5964 20.0029 13.1225 19.3708 14.2477 18.2456C15.373 17.1204 16.0051 15.5942 16.0051 14.0029C16.0051 12.4116 15.373 10.8855 14.2477 9.76029C13.1225 8.63507 11.5964 8.00293 10.0051 8.00293ZM10.5051 9.00293C10.7812 9.00293 11.0051 9.22679 11.0051 9.50293V10.0029H12.5051C12.7812 10.0029 13.0051 10.2268 13.0051 10.5029V11.5029C13.0051 11.7791 12.7812 12.0029 12.5051 12.0029H9.00509C8.88015 12.0027 8.75964 12.0493 8.66731 12.1334C8.57498 12.2176 8.51751 12.3333 8.50622 12.4578C8.49493 12.5822 8.53063 12.7063 8.60631 12.8058C8.68199 12.9052 8.79214 12.9727 8.91509 12.9949L9.00509 13.0029H11.0051C11.6681 13.0029 12.304 13.2663 12.7729 13.7352C13.2417 14.204 13.5051 14.8399 13.5051 15.5029C13.5051 16.166 13.2417 16.8019 12.7729 17.2707C12.304 17.7395 11.6681 18.0029 11.0051 18.0029V18.5029C11.0051 18.7791 10.7812 19.0029 10.5051 19.0029H9.50509C9.22895 19.0029 9.00509 18.7791 9.00509 18.5029V18.0029H7.50509C7.22895 18.0029 7.00509 17.7791 7.00509 17.5029V16.5029C7.00509 16.2268 7.22895 16.0029 7.50509 16.0029H11.0051C11.13 16.0032 11.2505 15.9566 11.3429 15.8724C11.4352 15.7882 11.4927 15.6725 11.504 15.5481C11.5153 15.4237 11.4795 15.2995 11.4039 15.2001C11.3282 15.1007 11.218 15.0332 11.0951 15.0109L11.0051 15.0029H9.00509C8.34205 15.0029 7.70617 14.7395 7.23732 14.2707C6.76848 13.8019 6.50509 13.166 6.50509 12.5029C6.50509 11.8399 6.76848 11.204 7.23732 10.7352C7.70617 10.2663 8.34205 10.0029 9.00509 10.0029V9.50293C9.00509 9.22679 9.22895 9.00293 9.50509 9.00293H10.5051ZM14.0051 4.00293C13.1578 4.00275 12.32 4.18204 11.547 4.52901C10.7739 4.87597 10.0831 5.38273 9.52009 6.01593C10.6504 5.94732 11.7823 6.11943 12.8411 6.52088C13.8999 6.92233 14.8614 7.54397 15.662 8.34471C16.4627 9.14544 17.0842 10.107 17.4855 11.1659C17.8869 12.2247 18.0588 13.3567 17.9901 14.4869C18.8993 13.6786 19.5413 12.6129 19.8309 11.4312C20.1205 10.2496 20.0441 9.00784 19.6117 7.87065C19.1794 6.73346 18.4115 5.75457 17.41 5.06381C16.4085 4.37306 15.2207 4.00307 14.0041 4.00293" fill="#FBCF58"/>
</svg>
