<svg width="24" height="24" viewBox="0 0 24 24" fill="none" xmlns="http://www.w3.org/2000/svg">
<path d="M9.12891 19.7559C8.92708 19.7559 8.76432 19.7005 8.64062 19.5898C8.51693 19.4727 8.45182 19.3164 8.44531 19.1211L8.15234 8.88672C8.14583 8.69792 8.20443 8.54492 8.32812 8.42773C8.45182 8.30404 8.61458 8.24219 8.81641 8.24219C9.01823 8.24219 9.18099 8.30078 9.30469 8.41797C9.42839 8.53516 9.49023 8.68815 9.49023 8.87695L9.79297 19.1113C9.79297 19.3066 9.73112 19.4629 9.60742 19.5801C9.49023 19.6973 9.33073 19.7559 9.12891 19.7559ZM12 19.7559C11.7982 19.7559 11.6322 19.6973 11.502 19.5801C11.3783 19.4629 11.3164 19.3099 11.3164 19.1211V8.88672C11.3164 8.69792 11.3783 8.54492 11.502 8.42773C11.6322 8.30404 11.7982 8.24219 12 8.24219C12.2083 8.24219 12.3743 8.30404 12.498 8.42773C12.6283 8.54492 12.6934 8.69792 12.6934 8.88672V19.1211C12.6934 19.3099 12.6283 19.4629 12.498 19.5801C12.3743 19.6973 12.2083 19.7559 12 19.7559ZM14.8809 19.7559C14.6725 19.7559 14.5065 19.6973 14.3828 19.5801C14.2656 19.4629 14.2103 19.3066 14.2168 19.1113L14.5098 8.88672C14.5163 8.69141 14.5814 8.53516 14.7051 8.41797C14.8288 8.30078 14.9883 8.24219 15.1836 8.24219C15.3919 8.24219 15.5547 8.30404 15.6719 8.42773C15.7956 8.54492 15.8542 8.69792 15.8477 8.88672L15.5547 19.1211C15.5482 19.3164 15.4831 19.4727 15.3594 19.5898C15.2357 19.7005 15.0762 19.7559 14.8809 19.7559ZM7.56641 5.51758V3.4082C7.56641 2.65951 7.79102 2.07682 8.24023 1.66016C8.69596 1.23698 9.32747 1.02539 10.1348 1.02539H13.8457C14.653 1.02539 15.2845 1.23698 15.7402 1.66016C16.196 2.07682 16.4238 2.65951 16.4238 3.4082V5.51758H14.6172V3.49609C14.6172 3.2487 14.5358 3.05013 14.373 2.90039C14.2103 2.74414 13.9922 2.66602 13.7188 2.66602H10.2617C9.99479 2.66602 9.77995 2.74414 9.61719 2.90039C9.45443 3.05013 9.37305 3.2487 9.37305 3.49609V5.51758H7.56641ZM3.24023 6.5918C2.99935 6.5918 2.79427 6.50716 2.625 6.33789C2.45573 6.16862 2.37109 5.96354 2.37109 5.72266C2.37109 5.48828 2.45573 5.28971 2.625 5.12695C2.79427 4.95768 2.99935 4.87305 3.24023 4.87305H20.7695C21.0104 4.87305 21.2122 4.95443 21.375 5.11719C21.5443 5.27995 21.6289 5.48177 21.6289 5.72266C21.6289 5.96354 21.5443 6.16862 21.375 6.33789C21.2122 6.50716 21.0104 6.5918 20.7695 6.5918H3.24023ZM7.51758 23.0664C6.76237 23.0664 6.1569 22.8548 5.70117 22.4316C5.25195 22.0085 5.01107 21.4193 4.97852 20.6641L4.29492 6.40625H6.08203L6.75586 20.3613C6.76888 20.6478 6.86328 20.8822 7.03906 21.0645C7.21484 21.2467 7.43945 21.3379 7.71289 21.3379H16.2871C16.5605 21.3379 16.7852 21.2467 16.9609 21.0645C17.1367 20.8887 17.2311 20.6543 17.2441 20.3613L17.8887 6.40625H19.7051L19.0312 20.6543C18.9987 21.4095 18.7546 21.9987 18.2988 22.4219C17.8431 22.8516 17.2409 23.0664 16.4922 23.0664H7.51758Z" fill="white"/>
</svg>
